<svg width="160" height="160" viewBox="0 0 160 160" fill="none" xmlns="http://www.w3.org/2000/svg">
  <defs>
    <linearGradient id="planet" x1="33" y1="42" x2="120" y2="116" gradientUnits="userSpaceOnUse">
      <stop offset="0" stop-color="#08B9F6"/>
      <stop offset="0.48" stop-color="#3B82F6"/>
      <stop offset="1" stop-color="#A78BFA"/>
    </linearGradient>
    <linearGradient id="ring" x1="7" y1="97" x2="150" y2="62" gradientUnits="userSpaceOnUse">
      <stop offset="0" stop-color="#00C8FF"/>
      <stop offset="0.5" stop-color="#3B82F6"/>
      <stop offset="1" stop-color="#B084FF"/>
    </linearGradient>
    <filter id="soft" x="-20" y="-20" width="200" height="200" filterUnits="userSpaceOnUse" color-interpolation-filters="sRGB">
      <feDropShadow dx="0" dy="0" stdDeviation="2.2" flood-color="#3B82F6" flood-opacity="0.22"/>
    </filter>
  </defs>
  <rect width="160" height="160" rx="0" fill="#020611"/>
  <g filter="url(#soft)">
    <path d="M114.5 123.5C104.9 133.1 91.8 139 77.3 139C48.2 139 24.6 115.4 24.6 86.3C24.6 57.2 48.2 33.6 77.3 33.6C106.4 33.6 130 57.2 130 86.3C130 96.8 126.9 106.5 121.6 114.8L130.8 142.5L114.5 123.5ZM77.3 47.5C55.9 47.5 38.5 64.9 38.5 86.3C38.5 107.7 55.9 125.1 77.3 125.1C98.7 125.1 116.1 107.7 116.1 86.3C116.1 64.9 98.7 47.5 77.3 47.5Z" fill="url(#planet)"/>
    <path d="M9.5 105.5C21.1 88.1 50.4 72.7 86.3 62.8C123.4 52.6 154.1 53.2 158.1 64.1C162.7 76.7 129.8 97.5 84.6 110.5C39.4 123.5 5.3 122.4 0.7 109.8C-0.2 107.4 0.2 104.7 2.1 101.8C4.8 107.9 35 107.1 75.2 96C116.9 84.6 148.1 67.3 144.8 60.8C142.3 55.8 117.1 58.2 85.8 66.3C53.5 74.6 21.1 88.9 9.5 105.5Z" fill="url(#ring)"/>
    <circle cx="102.5" cy="70.5" r="8.6" fill="white"/>
    <rect x="15" y="73" width="8" height="8" rx="1" fill="#A78BFA"/>
    <rect x="22" y="92" width="11" height="11" rx="1" fill="#08B9F6"/>
    <rect x="40" y="99" width="13" height="13" rx="1" fill="#08B9F6"/>
  </g>
</svg>
